<?xml version="1.0" encoding="utf-8"?>
<!-- Generator: Adobe Illustrator 22.0.1, SVG Export Plug-In . SVG Version: 6.00 Build 0)  -->
<svg version="1.1" id="Layer_1" xmlns="http://www.w3.org/2000/svg" xmlns:xlink="http://www.w3.org/1999/xlink" x="0px" y="0px"
	 viewBox="0 0 612 792" style="enable-background:new 0 0 612 792;" xml:space="preserve">
<style type="text/css">
	.st0{display:none;fill:#FCFDFC;}
	.st1{fill:#48FD05;}
	.st2{fill:#256F05;}
</style>
<g>
	<path class="st0" d="M563,391.5c0,83.8,0,167.6,0.1,251.4c0,3.4-0.6,4.1-4.1,4.1c-168-0.1-335.9-0.1-503.9,0
		c-3.9,0-4.2-1.1-4.2-4.5c0.1-167.8,0.1-335.6,0-503.4c0-3.5,0.6-4.4,4.3-4.4c167.8,0.1,335.6,0.1,503.4,0c4,0,4.5,1.1,4.5,4.7
		C563,223.6,563,307.6,563,391.5z M270.8,452.1c3.2-0.4,6.3-1.1,8.2,2.7c3.4,6.8,5.2,13.9,3.7,21.6c-0.2,1.3-0.8,3.2-0.2,3.8
		c3.1,3.2,0.7,5.7-0.7,8.4c-1.5,2.8-3.2,5.4-4.7,8.2c-1.8,3.5-0.7,6.1,2.6,7.8c1.6,0.8,3.3,1.8,5,2.2c5.7,1.2,9.2,5.2,12.1,9.7
		c5,7.7,3.3,12.9-5.1,16.9c-1.2,0.6-2.9,0.9-2.8,2.9c4.9,0.4,9.6-0.9,14.4-1.5c4.1-0.5,7.7,0.8,11.1-4.5c2.5-3.8,5.6-7.7,8.2-11.8
		c2.1-3.3,0.8-4.6-1.9-6.1c-7.1-3.8-14.2-7.7-21-12.2c-2.1-1.4-3.4-2.9-2.3-5.3c1.4-3,2.9-6.1,5-8.6c1.7-2,4.4-0.4,6.6-0.2
		c1,0.1,2.1,0.1,2.7-0.8c0.7-1.2-0.3-1.9-1.1-2.4c-3-1.8-2.8-4.6-2.4-7.5c0.5-3,1.2-5.9,0.7-8.9c-0.4-2.3,0.8-3.1,2.8-2.7
		c4.1,0.9,7.2-0.8,10.4-3.3c3.2-2.5,6.9-4.3,4.9-9.4c-0.1-0.3,0.6-1.1,1.1-1.4c2.4-1.7,1.3-3.2-0.4-4.3c-2.1-1.4-3.1-3.5-4.2-5.5
		c-4.4-7.7-8.8-15.3-13-23c-4.8-8.9-14.9-13.2-24.2-10c-4.6,1.5-5.8,3.5-4.4,8.1c0.4,1.2,1.8,2.6,0.1,3.5c-1.7,0.9-2.9,0.2-4-1.6
		c-2.6-4.3-6.6-5.4-11.2-4c-4.1,1.2-7.4,3.1-8,8.3c-0.8,5.9-0.4,7.5,5.6,9.8c2.6,1,4.5,4.5,8.2,1.9c-2.5,3.6-4,6.9-3.1,10.9
		c0.3,1.2,0.1,1.9-1.2,2.1c-4.4,0.8-3.5,4-3.1,7c-0.8,8-4.2,15.3-6.4,22.9c-4.1,14.1-8.5,28.2-12.8,42.2c-0.7,2.3-1.5,3.9-4.8,2.1
		c-18-9.8-32.3-23.7-44.6-39.9c-5.6-7.3-9.3-14.8-7.8-24.2c1-5.8,2.8-11.2,5.2-16.5c8.7-19.4,20.9-36.7,32.6-54.2
		c3.6-5.4,4.8-5.6,10-2c3.4,2.3,6,2.8,8.8-1.2c2.6-3.6,5-7.3,7.4-11c3.7-6,6.9-12.3,12.2-17.2c5.6-5.1,9.9-5.4,16.5-1.3
		c9.2,5.7,15.1,14.4,21.6,22.5c7.1,9,13,19,21.5,26.9c3.9,3.7,5.5,3,6.7-2.3c1.8-7.7,2.2-15.8,7.2-22.4c2.5-3.2,5.6-4.9,9.9-3.1
		c7.1,3,11.8,8.7,16.3,14.6c16.4,21,29,44.6,44.1,66.5c6.5,9.4,12.8,18.9,21.9,26.1c7.1,5.7,12.6,4.6,16.5-3.6
		c10.2-21.7,10.7-44.3,5-67c-5.9-23.6-18.7-43.7-34.7-61.7c-22-24.7-48.1-44.1-78.3-57.7c-14.9-6.7-30.4-11.7-47.1-10.2
		c-17.2,1.6-34,4.8-50.1,11.4c-26,10.6-47.7,26.2-63.9,49.6c-15.1,21.8-22,45.9-23,71.9c-0.7,17.7,2.1,35.1,7.7,52
		c6.9,20.7,18.8,38.2,34.9,52.8c14.4,13.1,31,22.4,49.4,29c13.2,4.7,26.8,7.8,40.6,8.9c25.1,2,49.7-0.8,72.8-11.8
		c7.6-3.6,14.7-8,22.1-14.5c-3.2,0.5-4.9,0.6-6.6,1.1c-14.4,4.2-29.1,6.9-44,7.3c-14.1,0.4-28.1,0.5-42.2-2.2
		c-13.2-2.5-25.7-6-37.9-11.2c-2.9-1.3-3.1-2.6-2.2-5.3c1.9-5.6,3.5-11.3,5.3-17C260.3,486.1,265.5,469.1,270.8,452.1z M154.2,291.3
		c-2.9-1.1-4,0.8-5.2,2.3c-6.7,9-13.3,18.1-19.5,27.5c-24.9,37.4-39.4,77.7-37.6,123.4c1.4,33.5,8,65.5,24.7,94.6
		c36.8,64.4,94,94.6,166.7,97.8c19.9,0.9,39.6-1.9,59-5.9c31.7-6.6,61-18.7,87.1-38c37.9-28.1,62.2-65.6,74.6-110.9
		c6.9-25.4,10.9-51.4,8.5-77.6c-3.4-38.2-14.6-74.6-29.5-109.9c-1-2.4-2.3-4.4-5-5.8c0,1.9-0.3,3.5,0.1,4.9
		c4.3,15.4,7.2,31.1,9.6,46.9c5.3,35.1,6.5,70.3-0.7,105.3c-10.7,52-38.4,91.8-84.9,118.1c-27.4,15.5-57.2,24-88.3,28.2
		c-13.7,1.8-27.5,2.9-41.3,0.7c-33.7-5.5-64-18.9-90.5-40.4c-50.4-40.7-70.3-93.8-62.6-157.5c3.6-29.9,13.5-57.9,26.1-85
		C148.3,303.6,151.1,297.4,154.2,291.3z M254.2,206.3c0.1-25.7-16.3-45.4-41.1-50.3c-13.1-2.6-23.7,1.1-31.7,11.6
		c-4.2,5.5-6.7,11.9-8.4,18.5c-6.3,24.1-4.5,48.5-2.4,72.9c0.6,6.5,2.3,12.8,4.5,18.9c5.1,14.2,16.4,21.4,29.9,19.2
		c8.6-1.4,14.6-6.9,19.7-13.4c10.2-13,16-28.3,21.2-43.7C249.7,228.7,254.5,217.8,254.2,206.3z M287.7,196.9
		c0.1,6.3,0.3,12.6,1.4,18.9c0.4,2.1,1,4.2,1.7,6.2c3.3,9.7,10.6,12.6,19.6,7.6c4.3-2.4,7.9-5.6,11.1-9.1
		c16.2-17.9,16.7-39.4,1.4-55.5c-12.1-12.7-26.3-9.6-31.9,6.9C288.3,180,287.5,188.4,287.7,196.9z M342,219.5c0.1,8.7,0.7,15,3,20.9
		c3.1,7.9,8.5,10.2,16.3,7.3c18.9-7.1,31.4-26.6,29.9-46.6c-1.3-17.3-16.3-25.2-31.1-16.1C346.4,193.4,342.7,206.9,342,219.5z
		 M434.1,252.1c0.1-5.9-1.6-11.2-5-16c-4.9-7-10.1-8.7-18.2-5.8c-18.5,6.7-25.3,25.3-23.6,40.9c0.9,8,8.4,12.9,16.5,11.6
		c4.1-0.7,8.1-2,11.6-4.2C425.3,272.2,434,265.1,434.1,252.1z M464.1,293.4c0-7.1-3.6-12.7-9.3-14.5c-7.6-2.4-16.3,0.2-20.3,6.7
		c-4.6,7.4-7.4,15.6-8.1,24.4c-0.6,7.3,4.2,12,11,11.6C449.8,320.9,464.1,305.8,464.1,293.4z"/>
	<path class="st1" d="M270.8,452.1c-5.3,17-10.6,34-15.8,51c-1.8,5.7-3.3,11.4-5.3,17c-0.9,2.7-0.7,4.1,2.2,5.3
		c12.2,5.2,24.8,8.7,37.9,11.2c14.2,2.7,28.1,2.6,42.2,2.2c14.9-0.4,29.6-3.1,44-7.3c1.6-0.5,3.4-0.6,6.6-1.1
		c-7.4,6.6-14.5,10.9-22.1,14.5c-23.1,11-47.7,13.7-72.8,11.8c-13.9-1.1-27.4-4.2-40.6-8.9c-18.3-6.5-35-15.9-49.4-29
		c-16.1-14.6-28-32-34.9-52.8c-5.6-16.9-8.4-34.2-7.7-52c1-26,8-50.1,23-71.9c16.2-23.4,37.9-39,63.9-49.6
		c16.2-6.6,32.9-9.8,50.1-11.4c16.7-1.6,32.2,3.5,47.1,10.2c30.2,13.6,56.3,33,78.3,57.7c16,18,28.8,38.1,34.7,61.7
		c5.7,22.7,5.3,45.3-5,67c-3.9,8.2-9.4,9.3-16.5,3.6c-9-7.2-15.4-16.7-21.9-26.1c-15-21.9-27.7-45.5-44.1-66.5
		c-4.5-5.8-9.2-11.5-16.3-14.6c-4.2-1.8-7.4-0.2-9.9,3.1c-5,6.6-5.5,14.7-7.2,22.4c-1.2,5.3-2.8,5.9-6.7,2.3
		c-8.5-7.9-14.4-17.9-21.5-26.9c-6.5-8.2-12.4-16.9-21.6-22.5c-6.6-4-10.9-3.8-16.5,1.3c-5.3,4.8-8.5,11.2-12.2,17.2
		c-2.4,3.8-4.8,7.4-7.4,11c-2.8,4-5.4,3.5-8.8,1.2c-5.2-3.6-6.4-3.5-10,2c-11.7,17.6-24,34.8-32.6,54.2c-2.4,5.3-4.2,10.7-5.2,16.5
		c-1.6,9.4,2.2,16.9,7.8,24.2c12.4,16.2,26.6,30,44.6,39.9c3.4,1.8,4.1,0.3,4.8-2.1c4.3-14,8.7-28.1,12.8-42.2
		c2.2-7.6,5.7-14.9,6.4-22.9C267.3,453.1,269.1,452.9,270.8,452.1z"/>
	<path class="st2" d="M154.2,291.3c-3.1,6.1-5.9,12.3-8.7,18.4c-12.6,27.2-22.5,55.2-26.1,85c-7.7,63.8,12.3,116.8,62.6,157.5
		c26.5,21.4,56.8,34.9,90.5,40.4c13.8,2.2,27.6,1.1,41.3-0.7c31.1-4.1,60.8-12.6,88.3-28.2c46.4-26.3,74.2-66.1,84.9-118.1
		c7.2-35,6-70.2,0.7-105.3c-2.4-15.8-5.3-31.4-9.6-46.9c-0.4-1.4-0.1-2.9-0.1-4.9c2.7,1.4,3.9,3.4,5,5.8
		c14.9,35.3,26,71.7,29.5,109.9c2.4,26.2-1.6,52.2-8.5,77.6c-12.4,45.3-36.7,82.8-74.6,110.9c-26.1,19.3-55.4,31.4-87.1,38
		c-19.5,4-39.1,6.8-59,5.9c-72.7-3.2-130-33.4-166.7-97.8c-16.7-29.2-23.3-61.2-24.7-94.6c-1.8-45.7,12.7-86,37.6-123.4
		c6.2-9.4,12.9-18.4,19.5-27.5C150.2,292.1,151.3,290.2,154.2,291.3z"/>
	<path class="st2" d="M254.2,206.3c0.4,11.6-4.5,22.5-8.3,33.6c-5.2,15.4-11,30.7-21.2,43.7c-5.1,6.5-11.1,12-19.7,13.4
		c-13.5,2.2-24.8-5-29.9-19.2c-2.2-6.1-3.9-12.4-4.5-18.9c-2.1-24.4-3.9-48.8,2.4-72.9c1.7-6.6,4.2-13,8.4-18.5
		c8-10.5,18.6-14.3,31.7-11.6C237.9,160.9,254.3,180.6,254.2,206.3z"/>
	<path class="st2" d="M270.8,452.1c-1.7,0.8-3.5,1-5.4,0.8c-0.4-3-1.3-6.1,3.1-7c1.3-0.2,1.5-0.9,1.2-2.1c-1-4,0.6-7.4,3.1-10.9
		c-3.7,2.7-5.7-0.9-8.2-1.9c-6-2.4-6.4-3.9-5.6-9.8c0.7-5.2,3.9-7.1,8-8.3c4.6-1.4,8.7-0.3,11.2,4c1.1,1.8,2.3,2.5,4,1.6
		c1.7-0.9,0.3-2.3-0.1-3.5c-1.4-4.6-0.2-6.6,4.4-8.1c9.3-3.2,19.4,1.1,24.2,10c4.2,7.7,8.7,15.4,13,23c1.1,2,2.1,4.1,4.2,5.5
		c1.6,1.1,2.8,2.6,0.4,4.3c-0.5,0.3-1.2,1.1-1.1,1.4c2,5.1-1.7,6.9-4.9,9.4c-3.2,2.5-6.3,4.2-10.4,3.3c-2.1-0.4-3.2,0.4-2.8,2.7
		c0.5,3-0.3,5.9-0.7,8.9c-0.5,2.8-0.7,5.6,2.4,7.5c0.8,0.5,1.8,1.2,1.1,2.4c-0.6,1-1.7,0.9-2.7,0.8c-2.3-0.2-5-1.8-6.6,0.2
		c-2.1,2.5-3.5,5.6-5,8.6c-1.1,2.4,0.1,3.9,2.3,5.3c6.8,4.4,13.8,8.4,21,12.2c2.7,1.5,4,2.7,1.9,6.1c-2.6,4.1-5.7,8-8.2,11.8
		c-3.4,5.3-7,4-11.1,4.5c-4.8,0.6-9.4,1.9-14.4,1.5c-0.1-2,1.6-2.4,2.8-2.9c8.4-3.9,10.1-9.2,5.1-16.9c-2.9-4.5-6.4-8.5-12.1-9.7
		c-1.8-0.4-3.4-1.3-5-2.2c-3.4-1.7-4.5-4.4-2.6-7.8c1.5-2.8,3.2-5.4,4.7-8.2c1.4-2.6,3.8-5.1,0.7-8.4c-0.6-0.6,0-2.5,0.2-3.8
		c1.5-7.7-0.4-14.7-3.7-21.6C277.2,451.1,274,451.7,270.8,452.1z"/>
	<path class="st2" d="M287.7,196.9c-0.2-8.5,0.6-16.9,3.3-25.1c5.5-16.5,19.8-19.6,31.9-6.9c15.3,16.1,14.8,37.7-1.4,55.5
		c-3.2,3.6-6.9,6.8-11.1,9.1c-9,5-16.3,2.1-19.6-7.6c-0.7-2-1.3-4.1-1.7-6.2C288,209.5,287.8,203.2,287.7,196.9z"/>
	<path class="st2" d="M342,219.5c0.7-12.6,4.4-26.1,18.1-34.5c14.8-9.1,29.8-1.2,31.1,16.1c1.5,20-11,39.5-29.9,46.6
		c-7.8,2.9-13.2,0.6-16.3-7.3C342.6,234.5,342.1,228.2,342,219.5z"/>
	<path class="st2" d="M434.1,252.1c-0.2,13-8.8,20.2-18.6,26.4c-3.5,2.2-7.5,3.6-11.6,4.2c-8,1.3-15.6-3.5-16.5-11.6
		c-1.7-15.6,5.1-34.2,23.6-40.9c8.1-2.9,13.3-1.1,18.2,5.8C432.5,240.9,434.2,246.2,434.1,252.1z"/>
	<path class="st2" d="M464.1,293.4c0,12.4-14.2,27.5-26.7,28.2c-6.9,0.4-11.6-4.4-11-11.6c0.7-8.7,3.6-16.9,8.1-24.4
		c4-6.5,12.7-9.1,20.3-6.7C460.5,280.7,464,286.3,464.1,293.4z"/>
</g>
</svg>
